<svg
        fill="none"
        xmlns="http://www.w3.org/2000/svg"
        viewBox="0 0 1440 650"
        class="heropattern-desktop"
      >
        <g clip-path="url(#heropatterndesktopwhiteclip)">
          <path
            d="M0 0h1440M0 16h1440M0 32h1440M0 48h1440M0 64h1440M0 80h1440M0 96h1440M0 112h1440M0 128h1440M0 144h1440M0 160h1440M0 176h1440M0 192h1440M0 208h1440M0 224h1440M0 240h1440M0 256h1440M0 272h1440M0 288h1440M0 304h1440M0 320h1440M0 336h1440M0 352h1440M0 368h1440M0 384h1440M0 400h1440M0 416h1440M0 432h1440M0 448h1440M0 464h1440M0 480h1440M0 496h1440M0 512h1440M0 528h1440M0 544h1440M0 560h1440M0 576h1440M0 592h1440M0 608h1440M0 624h1440M0 640h1440M0 656v-825M16 656v-825M32 656v-825M48 656v-825M64 656v-825M80 656v-825M96 656v-825M112 656v-825M128 656v-825M144 656v-825M160 656v-825M176 656v-825M192 656v-825M208 656v-825M224 656v-825M240 656v-825M256 656v-825M272 656v-825M288 656v-825M304 656v-825M320 656v-825M336 656v-825M352 656v-825M368 656v-825M384 656v-825M400 656v-825M416 656v-825M432 656v-825M448 656v-825M464 656v-825M480 656v-825M496 656v-825M512 656v-825M528 656v-825M544 656v-825M560 656v-825M576 656v-825M592 656v-825M608 656v-825M624 656v-825M640 656v-825M656 656v-825M672 656v-825M688 656v-825M704 656v-825M720 656v-825M736 656v-825M752 656v-825M768 656v-825M784 656v-825M800 656v-825M816 656v-825M832 656v-825M848 656v-825M864 656v-825M880 656v-825M896 656v-825M912 656v-825M928 656v-825M944 656v-825M960 656v-825M976 656v-825M992 656v-825M1008 656v-825M1024 656v-825M1040 656v-825M1056 656v-825M1072 656v-825M1088 656v-825M1104 656v-825M1120 656v-825M1136 656v-825M1152 656v-825M1168 656v-825M1184 656v-825M1200 656v-825M1216 656v-825M1232 656v-825M1248 656v-825M1264 656v-825M1280 656v-825M1296 656v-825M1312 656v-825M1328 656v-825M1344 656v-825M1360 656v-825M1376 656v-825M1392 656v-825M1408 656v-825M1424 656v-825M1440 656v-825"
            stroke="#F3F4F6"
          ></path>
          <path
            fill="url(#heropatternlineardesktopwhite)"
            d="M0 0h1440v657H0z"
          ></path>
        </g>
        <defs>
          <linearGradient
            id="heropatternlineardesktopwhite"
            x1="380"
            y1="504"
            x2="172.163"
            y2="160.075"
            gradientUnits="userSpaceOnUse"
          >
            <stop stop-color="#fff"></stop>
            <stop offset="1" stop-color="#fff" stop-opacity="0"></stop>
          </linearGradient>
          <clipPath id="heropatterndesktopwhiteclip">
            <path fill="#fff" d="M0 0h1440v657H0z"></path>
          </clipPath>
        </defs>
      </svg>