<svg width="123" height="54" viewBox="0 0 123 54" fill="none" xmlns="http://www.w3.org/2000/svg">
<path d="M16.4787 26.348C16.3764 25.3168 15.9375 24.5157 15.1619 23.9446C14.3864 23.3736 13.3338 23.0881 12.0043 23.0881C11.1009 23.0881 10.3381 23.2159 9.71591 23.4716C9.09375 23.7188 8.61648 24.064 8.28409 24.5071C7.96023 24.9503 7.7983 25.4532 7.7983 26.0157C7.78125 26.4844 7.87926 26.8935 8.09233 27.2429C8.31392 27.5924 8.61648 27.8949 9 28.1506C9.38352 28.3978 9.8267 28.6151 10.3295 28.8026C10.8324 28.9816 11.3693 29.135 11.9403 29.2628L14.2926 29.8253C15.4347 30.081 16.483 30.4219 17.4375 30.848C18.392 31.2742 19.2188 31.7983 19.9176 32.4205C20.6165 33.0426 21.1577 33.7756 21.5412 34.6193C21.9332 35.4631 22.1335 36.4304 22.142 37.5213C22.1335 39.1236 21.7244 40.5128 20.9148 41.689C20.1136 42.8566 18.9545 43.7642 17.4375 44.412C15.929 45.0512 14.1094 45.3708 11.9787 45.3708C9.86506 45.3708 8.02415 45.0469 6.45597 44.3992C4.89631 43.7515 3.67756 42.7926 2.79972 41.5228C1.9304 40.2443 1.47443 38.6634 1.43182 36.7799H6.78835C6.84801 37.6577 7.09943 38.3907 7.54261 38.9787C7.99432 39.5583 8.59517 39.9972 9.34517 40.2955C10.1037 40.5853 10.9602 40.7301 11.9148 40.7301C12.8523 40.7301 13.6662 40.5938 14.3565 40.3211C15.0554 40.0483 15.5966 39.6691 15.9801 39.1833C16.3636 38.6975 16.5554 38.1392 16.5554 37.5086C16.5554 36.9205 16.3807 36.4262 16.0312 36.0256C15.6903 35.625 15.1875 35.2841 14.5227 35.0029C13.8665 34.7216 13.0611 34.4659 12.1065 34.2358L9.25568 33.5199C7.0483 32.983 5.3054 32.1435 4.02699 31.0015C2.74858 29.8594 2.11364 28.3211 2.12216 26.3864C2.11364 24.8012 2.53551 23.4162 3.38778 22.2316C4.24858 21.0469 5.42898 20.1222 6.92898 19.4574C8.42898 18.7926 10.1335 18.4603 12.0426 18.4603C13.9858 18.4603 15.6818 18.7926 17.1307 19.4574C18.5881 20.1222 19.7216 21.0469 20.5312 22.2316C21.3409 23.4162 21.7585 24.7884 21.7841 26.348H16.4787ZM24.6831 52.3637V25.3637H30.0525V28.662H30.2954C30.534 28.1336 30.8792 27.5966 31.3309 27.0512C31.7911 26.4972 32.3877 26.037 33.1206 25.6705C33.8621 25.2955 34.7826 25.108 35.882 25.108C37.3138 25.108 38.6348 25.483 39.8451 26.233C41.0553 26.9745 42.0226 28.0952 42.7471 29.5952C43.4715 31.0867 43.8337 32.9574 43.8337 35.2074C43.8337 37.3978 43.48 39.2472 42.7726 40.7557C42.0738 42.2557 41.1192 43.3935 39.909 44.1691C38.7073 44.9361 37.3607 45.3196 35.8692 45.3196C34.8124 45.3196 33.9133 45.1449 33.1718 44.7955C32.4388 44.4461 31.838 44.0071 31.3692 43.4787C30.9005 42.9418 30.5425 42.4006 30.2954 41.8551H30.1292V52.3637H24.6831ZM30.0141 35.1818C30.0141 36.3495 30.176 37.3679 30.4999 38.2372C30.8238 39.1066 31.2925 39.7841 31.9062 40.2699C32.5198 40.7472 33.2655 40.9858 34.1434 40.9858C35.0297 40.9858 35.7797 40.7429 36.3934 40.2571C37.007 39.7628 37.4715 39.081 37.7868 38.2117C38.1107 37.3338 38.2726 36.3239 38.2726 35.1818C38.2726 34.0483 38.115 33.0512 37.7996 32.1904C37.4843 31.3296 37.0198 30.6563 36.4062 30.1705C35.7925 29.6847 35.0383 29.4418 34.1434 29.4418C33.257 29.4418 32.507 29.6762 31.8934 30.1449C31.2883 30.6137 30.8238 31.2784 30.4999 32.1392C30.176 33 30.0141 34.0142 30.0141 35.1818ZM55.2565 45.3836C53.2708 45.3836 51.5534 44.9617 50.1046 44.1179C48.6642 43.2657 47.552 42.081 46.7679 40.564C45.9838 39.0384 45.5918 37.2699 45.5918 35.2586C45.5918 33.2301 45.9838 31.4574 46.7679 29.9404C47.552 28.4148 48.6642 27.2301 50.1046 26.3864C51.5534 25.5341 53.2708 25.108 55.2565 25.108C57.2423 25.108 58.9554 25.5341 60.3958 26.3864C61.8446 27.2301 62.9611 28.4148 63.7452 29.9404C64.5293 31.4574 64.9213 33.2301 64.9213 35.2586C64.9213 37.2699 64.5293 39.0384 63.7452 40.564C62.9611 42.081 61.8446 43.2657 60.3958 44.1179C58.9554 44.9617 57.2423 45.3836 55.2565 45.3836ZM55.2821 41.1648C56.1855 41.1648 56.9398 40.9091 57.5449 40.3978C58.15 39.8779 58.606 39.1705 58.9128 38.2756C59.2281 37.3807 59.3858 36.3622 59.3858 35.2202C59.3858 34.0782 59.2281 33.0597 58.9128 32.1648C58.606 31.2699 58.15 30.5625 57.5449 30.0426C56.9398 29.5228 56.1855 29.2628 55.2821 29.2628C54.3702 29.2628 53.6031 29.5228 52.981 30.0426C52.3673 30.5625 51.9029 31.2699 51.5875 32.1648C51.2807 33.0597 51.1273 34.0782 51.1273 35.2202C51.1273 36.3622 51.2807 37.3807 51.5875 38.2756C51.9029 39.1705 52.3673 39.8779 52.981 40.3978C53.6031 40.9091 54.3702 41.1648 55.2821 41.1648ZM83.7206 30.9631L78.7348 31.2699C78.6496 30.8438 78.4663 30.4603 78.1851 30.1193C77.9038 29.7699 77.5331 29.4929 77.0729 29.2884C76.6212 29.0753 76.08 28.9688 75.4493 28.9688C74.6055 28.9688 73.8939 29.1478 73.3143 29.5057C72.7348 29.8551 72.445 30.3239 72.445 30.912C72.445 31.3807 72.6325 31.777 73.0075 32.1009C73.3825 32.4247 74.026 32.6847 74.9379 32.8807L78.4919 33.5966C80.401 33.9887 81.8243 34.6193 82.7618 35.4887C83.6993 36.358 84.168 37.5 84.168 38.9148C84.168 40.2017 83.7888 41.331 83.0302 42.3026C82.2802 43.2742 81.249 44.0327 79.9365 44.5782C78.6325 45.1151 77.1283 45.3836 75.4237 45.3836C72.8243 45.3836 70.7533 44.8424 69.2106 43.76C67.6766 42.6691 66.7774 41.1861 66.5132 39.3111L71.8697 39.0299C72.0317 39.8225 72.4237 40.4276 73.0459 40.8452C73.668 41.2543 74.4649 41.4588 75.4365 41.4588C76.391 41.4588 77.1581 41.2756 77.7376 40.9091C78.3257 40.5341 78.624 40.0526 78.6325 39.4645C78.624 38.9702 78.4152 38.5654 78.0061 38.25C77.597 37.9262 76.9663 37.679 76.1141 37.5086L72.7135 36.831C70.7959 36.4475 69.3683 35.7827 68.4308 34.8367C67.5018 33.8907 67.0373 32.6847 67.0373 31.2188C67.0373 29.9574 67.3783 28.8708 68.0601 27.9588C68.7504 27.0469 69.7177 26.3438 70.9621 25.8495C72.2149 25.3551 73.6808 25.108 75.3598 25.108C77.8399 25.108 79.7916 25.6321 81.2149 26.6804C82.6467 27.7287 83.4819 29.1563 83.7206 30.9631ZM96.962 25.3637V29.4546H85.1367V25.3637H96.962ZM87.8213 20.6591H93.2674V38.9659C93.2674 39.4688 93.3441 39.8608 93.4975 40.1421C93.6509 40.4148 93.8639 40.6066 94.1367 40.7174C94.4179 40.8282 94.7418 40.8836 95.1083 40.8836C95.3639 40.8836 95.6196 40.8622 95.8753 40.8196C96.131 40.7685 96.327 40.7301 96.4634 40.7046L97.3199 44.7571C97.0472 44.8424 96.6637 44.9404 96.1693 45.0512C95.675 45.1705 95.0742 45.2429 94.3668 45.2685C93.0543 45.3196 91.9037 45.1449 90.9151 44.7443C89.935 44.3438 89.1722 43.7216 88.6267 42.8779C88.0813 42.0341 87.8128 40.9688 87.8213 39.6818V20.6591Z" fill="black"/>
<path d="M115.152 6.77555L97.9805 17.4781M89.4865 8.88779L113.626 5.89433C115.112 5.70999 116.222 7.19924 115.49 8.39731L103.613 27.8519C102.799 29.1847 100.602 28.8133 100.27 27.2867L98.272 18.1127C98.1723 17.6545 97.8712 17.2503 97.4415 16.9978L88.8386 11.9404C87.407 11.0989 87.8328 9.09287 89.4865 8.88779Z" stroke="black" stroke-width="1.5" stroke-linecap="round"/>
</svg>
